<?xml version="1.0" encoding="UTF-8"?>
<svg id="Ebene_1" xmlns="http://www.w3.org/2000/svg" xmlns:xlink="http://www.w3.org/1999/xlink" viewBox="0 0 1080 1080">
  <defs>
    <style>
      .cls-1 {
        fill: none;
      }

      .cls-2 {
        fill: #e0e0e0;
      }

      .cls-3 {
        fill: #a5986c;
        stroke: #938863;
        stroke-miterlimit: 10;
        stroke-width: .5px;
      }

      .cls-4 {
        opacity: .4;
      }

      .cls-4, .cls-5, .cls-6 {
        fill: #222221;
      }

      .cls-5, .cls-7 {
        opacity: .2;
      }

      .cls-8 {
        fill: #e6e6e6;
      }

      .cls-9 {
        fill: #d68b21;
      }

      .cls-10 {
        fill: #676a6c;
      }

      .cls-11 {
        fill: #455c72;
      }

      .cls-12, .cls-13 {
        fill: #fff;
      }

      .cls-12, .cls-14 {
        opacity: .11;
      }

      .cls-15 {
        fill: #c7d7ff;
      }

      .cls-16 {
        fill: #bac740;
      }

      .cls-17 {
        clip-path: url(#clippath-1);
      }

      .cls-18 {
        clip-path: url(#clippath-2);
      }

      .cls-19 {
        fill: #4e4e4e;
      }

      .cls-20 {
        fill: #678aad;
      }

      .cls-21 {
        fill: #d68c25;
      }

      .cls-22 {
        fill: #a5986d;
      }

      .cls-23, .cls-24 {
        fill: #31327d;
      }

      .cls-25 {
        fill: #130623;
      }

      .cls-26 {
        fill: #ac8c7e;
      }

      .cls-27 {
        fill: #8a99c6;
      }

      .cls-28 {
        fill: #1c1534;
      }

      .cls-29 {
        fill: #a17a80;
      }

      .cls-30, .cls-24 {
        opacity: .39;
      }

      .cls-31 {
        opacity: .57;
      }

      .cls-32 {
        opacity: .14;
      }

      .cls-33 {
        fill: #dac6a2;
      }

      .cls-34 {
        fill: #585857;
      }

      .cls-35 {
        fill: #cd808e;
      }

      .cls-36 {
        fill: #3d2614;
      }

      .cls-37 {
        fill: #6688ab;
      }

      .cls-38 {
        fill: #b0a285;
        opacity: .1;
      }

      .cls-39 {
        clip-path: url(#clippath);
      }

      .cls-40 {
        fill: #db8d2f;
      }
    </style>
    <clipPath id="clippath">
      <path class="cls-1" d="M802.77,313.29c6.16-3.55,12.21,5.94,24.2,4.65,6.22-.67,9.88-3.8,12.36-1.67,1.82,1.56,1.89,4.98.96,7.37-2.6,6.7-14.24,8.15-21.13,7.72-7.75-.49-19.62-4.03-20.34-10.52-.3-2.69,1.3-6.01,3.95-7.54Z"/>
    </clipPath>
    <clipPath id="clippath-1">
      <path class="cls-1" d="M321.51,261.82c8.5-4.9,16.86,8.2,33.41,6.42,8.59-.93,13.64-5.25,17.07-2.3,2.51,2.15,2.61,6.87,1.33,10.17-3.6,9.25-19.66,11.26-29.17,10.65-10.7-.68-27.08-5.56-28.08-14.53-.42-3.72,1.79-8.3,5.45-10.41Z"/>
    </clipPath>
    <clipPath id="clippath-2">
      <path class="cls-33" d="M323.36,313.5c-.59.02-1.04.18-1.22.43-1.46,2-8.2,13.01-14.62,15.91s59.44,1.8,74.38,1.51c1.18-.02,1.82-.61,1.09-1.02-3.4-1.91-10.43-8.66-11.46-16.56-.03-.25-.35-.49-.89-.56-7.89-1.08-41.25.07-47.28.29Z"/>
    </clipPath>
  </defs>
  <rect class="cls-15" x="-17.07" y="-20.02" width="1112.81" height="1112.81"/>
  <rect class="cls-27" x="-57.33" y="842.75" width="1183.26" height="314.49"/>
  <g>
    <g>
      <path class="cls-40" d="M779.22,391.84c33.83-5.29,64.18-4.6,90.9-.62,1.32.2,2.64.4,3.96.62l-3.83,18.3-93-4.82,1.98-13.48Z"/>
      <path class="cls-7" d="M779.22,391.84c33.83-5.29,64.18-4.6,90.9-.62,1.32.2,2.64.4,3.96.62l-3.83,18.3-93-4.82,1.98-13.48Z"/>
    </g>
    <rect class="cls-33" x="852.71" y="930.94" width="54.39" height="57.49"/>
    <rect class="cls-33" x="852.71" y="924.39" width="54.39" height="37.14"/>
    <rect class="cls-33" x="740.71" y="927.57" width="54.39" height="57.49"/>
    <g>
      <path class="cls-37" d="M916.98,939.97c.22-90.25-8.94-180.33-26.59-262.32,7.17-8.44,11.3-18.31,11.3-28.87,0-31.01-35.59-56.15-79.48-56.15s-79.48,25.14-79.48,56.15c0,9.24,3.16,17.96,8.76,25.65-22.17,87.72-29.42,177.68-21.53,267.5l70.56-6.2c-6.81-77.46-1.26-155.05,16.47-230.93,1.72.08,3.46.12,5.21.12.51,0,1.01,0,1.51-.01,14.91,73.74,22.63,154.15,22.43,234.88l70.83.17Z"/>
      <path class="cls-11" d="M743.92,818.49c7.53,4.11,17.18,4.11,25.2,1.52.76-.25.44-1.45-.33-1.21-7.7,2.48-17,2.56-24.23-1.39-.71-.39-1.34.69-.63,1.08h0Z"/>
      <path class="cls-11" d="M873.12,819.59c7.17,1.27,14.44,2.97,21.66.97.77-.22.45-1.42-.33-1.21-6.99,1.94-14.04.26-20.99-.97-.79-.14-1.12,1.07-.33,1.21h0Z"/>
      <g class="cls-30">
        <path class="cls-23" d="M812.08,698.49c-16.3,69.76-23.39,125.57-18.57,195.53.83,12.05,1.46,31,7.02,41.72h0c.2,2.53,0,0,0,0-6.81-77.46-1.26-155.05,16.47-230.93,1.72.08,3.46.12,5.21.12.51,0,1.01,0,1.51-.01,0,0,0,0,0,.01,0,0,0,0,0,0,0-.99-.43-5.86-.43-5.86-1.75,0-9.5-.51-11.22-.58Z"/>
        <path class="cls-23" d="M916.98,940.09c.22-90.25-8.95-180.33-26.59-262.32,7.17-8.44,11.3-18.31,11.3-28.86,0-17.99-12-34-30.63-44.27,12.07,9.85,25.21,27.88,25.21,41.92,0,10.56-4.44,19.78-11.61,28.22,17.65,81.99,25.38,172.12,25.16,262.37l7.16,2.95Z"/>
      </g>
    </g>
    <path class="cls-26" d="M800.44,352.28s4.49,26.96-14.6,43.81c-18.04,15.92,67.21,7.77,76.66,6.83.56-.06,1.09-.23,1.57-.52h0c2.21-1.33,2.5-4.44.55-6.12-6.53-5.64-18.13-19.29-18.13-45.11l-46.06,1.12Z"/>
    <path class="cls-26" d="M809.43,355.65c11.66,1.57,38.67,3.4,61.78-13.48,2.05-1.49,5.51-4.05,8.99-7.86,21.13-23.16,26.43-74.62-3.37-105.59-24.42-25.38-58.69-22.75-61.78-22.47-25.39,2.36-52.23,17.92-61.78,42.69-5.9,15.31-3.38,29.4,0,48.3,2.9,16.2,5.21,29.09,15.73,40.44,14.06,15.17,33.42,17.49,40.44,17.97Z"/>
    <g>
      <path class="cls-25" d="M847.82,274.33c.58,1.02.94,2.4.94,3.92,0,3.15-1.52,5.7-3.4,5.7-.57,0-1.1-.26-1.58-.68.62,1.09,1.49,1.78,2.45,1.78,1.88,0,3.4-2.55,3.4-5.7,0-2.19-.74-4.06-1.82-5.02Z"/>
      <path class="cls-28" d="M848.77,278.25c0-1.52-.36-2.9-.94-3.92-.47-.42-1.01-.68-1.58-.68-1.88,0-3.4,2.55-3.4,5.7,0,1.52.36,2.9.94,3.92.47.42,1.01.68,1.58.68,1.88,0,3.4-2.55,3.4-5.7Z"/>
    </g>
    <path class="cls-26" d="M818.1,297.21c.13-.38.94-2.67,3.17-3.22,1.99-.49,4.04.68,4.99,2.31,1.16,1.99.82,4.9-1.29,6.39-2.05,1.45-4.93.94-6.33-.81-1.48-1.85-.67-4.28-.54-4.67Z"/>
    <ellipse class="cls-13" cx="845.23" cy="277.33" rx="1.91" ry="1.24" transform="translate(182.44 870.65) rotate(-60)"/>
    <path class="cls-36" d="M792.58,196.14c-5.08-9.82-.59-21.04,0-22.47,6.99-16.76,26.87-18.98,28.08-19.1,2.36-.22,19.85-1.58,30.33,12.36,7.88,10.49,8.73,25.55,2.25,34.82-12.49,17.89-51.15,12.75-60.66-5.62Z"/>
    <ellipse class="cls-12" cx="820.78" cy="296.95" rx="2.62" ry="1.05" transform="translate(-18.84 535.46) rotate(-35.75)"/>
    <g class="cls-7">
      <path class="cls-6" d="M826.26,296.29c-.42-.72-1.06-1.34-1.81-1.78.15.18.28.38.4.58,1.16,1.99.82,4.9-1.29,6.39-1.52,1.07-3.5,1.07-4.99.28.03.04.04.07.07.11,1.4,1.75,4.28,2.25,6.33.81,2.11-1.48,2.45-4.39,1.29-6.39Z"/>
    </g>
    <path class="cls-25" d="M800.15,274.48c.58,1.02.94,2.4.94,3.92,0,3.15-1.52,5.7-3.4,5.7-.57,0-1.1-.26-1.58-.68.62,1.09,1.49,1.78,2.45,1.78,1.88,0,3.4-2.55,3.4-5.7,0-2.19-.74-4.06-1.82-5.02Z"/>
    <path class="cls-28" d="M801.09,278.4c0-1.52-.36-2.9-.94-3.92-.47-.42-1.01-.68-1.58-.68-1.88,0-3.4,2.55-3.4,5.7,0,1.52.36,2.9.94,3.92.47.42,1.01.68,1.58.68,1.88,0,3.4-2.55,3.4-5.7Z"/>
    <ellipse class="cls-13" cx="797.55" cy="277.47" rx="1.91" ry="1.24" transform="translate(158.48 829.44) rotate(-60)"/>
    <path class="cls-7" d="M884.69,215.24c-1.98-2.39-6.63-4.25-8.91-6.07,21.95,33.49,10.28,95.14-9.06,117.9-3.48,4.1-6.94,6.83-8.99,8.44-23.11,18.12-50.13,16.15-61.78,14.47-3.17-.24-8.88-.88-15.47-3.01,7.14,4.27,14.43,6.43,20.22,7.55.04.42.07.89.1,1.41,9.74,3.54,35.88,12.46,45.28,9.79.63-.18,1.17-.39,1.65-.62-.64-3.46-1.06-7.23-1.19-11.31,8.16-2.14,16.64-5.74,24.66-11.6,2.05-1.49,5.42-4.12,8.99-7.86,22.47-23.59,31.45-86.5,4.49-119.07Z"/>
    <path class="cls-26" d="M748.77,282.64c-1.02.53-5.28,2.9-6.74,7.86-1.69,5.77,1.32,11.92,5.62,14.6,1.33.83,2.46,1.54,3.37,1.12,2.86-1.3.7-12.41-2.25-23.59Z"/>
    <path class="cls-40" d="M792.58,196.14c2.89-3,10.48-10.01,22.47-12.36,17.32-3.38,30.49,5.6,33.7,7.86,4.76,3.36,8.39,5.93,7.86,7.86-.87,3.21-13.15,4.66-64.03-3.37Z"/>
    <path class="cls-26" d="M894.8,306.23c2.68,1.4,9.66-3.22,11.23-10.11,1.73-7.55-3.68-14.94-6.74-14.6-5,.54-9.05,22.33-4.49,24.71Z"/>
    <path class="cls-7" d="M894.8,306.23c2.68,1.4,9.66-3.22,11.23-10.11,1.73-7.55-3.68-14.94-6.74-14.6-5,.54-9.05,22.33-4.49,24.71Z"/>
    <path class="cls-36" d="M762.25,271.4s19.1-15.73,26.96-17.97c7.86-2.25,29.43-7.86,41.68,0,12.24,7.86,29.09,10.11,29.09,10.11,0,0,28.89,2.87,27.36,21.65-1.53,18.79.72,25.53-4.9,43.5,0,0,.92,5.62,4.96,0,4.03-5.62,22-47.18,8.52-92.11-13.48-44.93-64.37-42.64-64.37-42.64,0,0-53.58-10.16-73.8,25.79-20.22,35.95-4.49,98.85-4.49,98.85,0,0,3.13,12.86,9.43,12.61h3.01s-14.69-51.92-3.46-59.79Z"/>
    <path class="cls-29" d="M801.23,320.61c-2.21-3.18,1.27-7.25,4.77-5.6,3.79,1.78,8.15,3.11,13.01,3.39,10.34.58,18.71-3.86,20.7-.8,1.21,1.86-.6,5.43-2.51,7.53-7.37,8.11-27.69,6.91-35.77-4.23-.07-.09-.14-.19-.2-.29Z"/>
    <g class="cls-39">
      <g>
        <path class="cls-8" d="M819.02,318.39c-4.86-.27-9.22-1.6-13.01-3.39-2.6-1.22-5.19.71-5.44,3.09,4.52.68,23.86,3.33,39.52,1.29.05-.67-.05-1.29-.37-1.78-1.99-3.07-10.36,1.38-20.7.8Z"/>
        <g>
          <path class="cls-35" d="M824.05,329.9c-5.26-.26-9.72-1.88-11.73-4,2.3,1.11,5.42,1.88,8.9,2.05,7.27.36,9.92,1.36,10.08-1.92.04-.84-.33-1.66-1-2.42-2.31-1.14-5.48-1.93-9.02-2.1-7.11-.35-13.01,1.91-13.41,5.08,8.15,4.73,19.47,5.01,26.25,1.02,0,0,0-.01,0-.02-5.57.01-2.81,2.68-10.06,2.33Z"/>
          <path class="cls-5" d="M821.21,327.94c-3.47-.17-6.59-.94-8.9-2.05,2,2.12,6.46,3.74,11.73,4,7.25.36,4.49-2.31,10.06-2.33-.21-1.49-1.62-2.89-3.81-3.97.67.76,1.04,1.58,1,2.42-.16,3.28-2.81,2.28-10.08,1.92Z"/>
        </g>
        <path class="cls-8" d="M807.26,326.22c8.72,5.41,21.45,5.5,28.15.51-6.59-.63-17.64-1.36-28.15-.51Z"/>
        <path class="cls-8" d="M807.26,326.22c8.72,5.41,21.45,5.5,28.15.51-6.59-.63-17.64-1.36-28.15-.51Z"/>
      </g>
    </g>
    <ellipse class="cls-12" cx="780.83" cy="216.32" rx="12.35" ry="4.27" transform="translate(20.73 496.93) rotate(-35.75)"/>
    <ellipse class="cls-12" cx="810.47" cy="165.08" rx="7.23" ry="2.5" transform="translate(56.25 504.59) rotate(-35.75)"/>
    <ellipse class="cls-33" cx="276.69" cy="233.04" rx="14.89" ry="18.7" transform="translate(-41.97 61.8) rotate(-11.85)"/>
    <g class="cls-14">
      <path class="cls-6" d="M264.9,236.88c-2.12-10.11,2.68-19.67,10.73-21.36,1.49-.31,2.99-.33,4.46-.09-2.31-.92-4.78-1.21-7.23-.69-8.05,1.69-12.85,11.25-10.73,21.36,1.73,8.23,7.52,14.29,13.96,15.34-5.27-2.1-9.7-7.53-11.18-14.56Z"/>
    </g>
    <ellipse class="cls-33" cx="414.32" cy="233.04" rx="18.7" ry="14.89" transform="translate(107.13 595.81) rotate(-79.1)"/>
    <ellipse class="cls-5" cx="414.32" cy="233.04" rx="18.7" ry="14.89" transform="translate(107.13 595.81) rotate(-79.1)"/>
    <path class="cls-33" d="M276,250.71c.65,5.54,1.55,10.99,2.77,16.29,3.54,15.48,11.47,30.97,25.52,39.28,16.72,9.89,37.68,12.89,56.71,9.81.21-.03.42-.07.63-.1,22.51-3.86,42.67-18.32,48.8-41.08,2.94-10.94,5.97-24.35,5.69-35.67-.65-26.47,3.78-49.28-6.4-73.72-4.39-10.54-18.83-24.43-29.01-29.59-3.83-1.94-9.1-3.47-13.25-4.54-5.52-1.42-11.92-1.19-17.57-1.91-15.51-1.98-31.68,1.6-44.91,9.93-20.39,12.83-28.08,35.2-29.53,58.24-1.07,17.11-1.52,35.53.55,53.08Z"/>
    <ellipse class="cls-28" cx="327.06" cy="225.43" rx="2.81" ry="4.72"/>
    <g>
      <path class="cls-25" d="M364.94,221.27c.48.85.78,1.99.78,3.25,0,2.61-1.26,4.72-2.81,4.72-.47,0-.92-.22-1.31-.56.51.9,1.23,1.47,2.03,1.47,1.55,0,2.81-2.11,2.81-4.72,0-1.81-.61-3.36-1.51-4.16Z"/>
      <path class="cls-25" d="M328.37,221.27c.48.85.78,1.99.78,3.25,0,2.61-1.26,4.72-2.81,4.72-.47,0-.92-.22-1.31-.56.51.9,1.23,1.47,2.03,1.47,1.55,0,2.81-2.11,2.81-4.72,0-1.81-.61-3.36-1.51-4.16Z"/>
      <path class="cls-28" d="M365.72,224.52c0-1.26-.3-2.4-.78-3.25-.39-.35-.83-.56-1.31-.56-1.55,0-2.81,2.11-2.81,4.72,0,1.26.3,2.4.78,3.25.39.35.83.56,1.31.56,1.55,0,2.81-2.11,2.81-4.72Z"/>
    </g>
    <path class="cls-22" d="M275.59,200.69c-1.55,4.89-.8,9.98-.8,15.52v18.43s2.13,11.08,3.85,0c1.27-8.12-.87-17.69,4.01-24.92,2.87-4.25,7.65-5.74,12.56-5.86,30.36-.75,61.05-2.51,91.39-.61,4.47.28,9.42.37,13.69,1.88,12.64,4.46,10.77,18.77,12.22,29.5.1.74.66,6.85,1.87,6.83,1.71-.02,1.92-11.89,1.98-12.81,1.84-28.82-.85-29.78-.85-29.78-1.45-.51-3.87-5.34-4.82-6.53-4.18-5.25-8.77-10.19-13.72-14.73-13.35-12.25-30.05-22.02-48.52-22.98-28.24-1.47-54.89,19.34-70.5,41.35-1.11,1.56-1.86,3.13-2.37,4.73Z"/>
    <path class="cls-3" d="M345.61,182.4c-2.06,4.68-8.11,17.41-17.04,22.61-2.01,1.17-5.49,3.2-8.45,1.78-.02,0-.04-.02-.06-.03-2.51-1.24-2.68-4.9-.39-6.52,5.77-4.09,13.27-3.78,22.51-18.59"/>
    <path class="cls-3" d="M347.75,182.47c-.68,5.06-2.98,18.97-10.12,26.44-1.61,1.68-4.39,4.59-7.62,4.05-.02,0-.04,0-.06-.01-2.76-.5-3.91-3.96-2.18-6.16,4.33-5.49,11.14-7.06,16.49-24.09"/>
    <path class="cls-3" d="M350.55,180.79c.88,5.03,2.91,18.98-1.63,28.27-1.02,2.09-2.79,5.71-6.04,6.17-.02,0-.04,0-.06,0-2.78.36-4.95-2.59-3.95-5.2,2.53-6.61,8.94-10.51,8.41-27.96"/>
    <path class="cls-38" d="M340.77,236.26c.15-.43,1.06-3.01,3.57-3.63,2.25-.56,4.56.76,5.63,2.6,1.31,2.25.92,5.53-1.45,7.2-2.31,1.63-5.56,1.06-7.14-.91-1.67-2.08-.76-4.83-.61-5.27Z"/>
    <path class="cls-29" d="M321.51,261.82c8.5-4.9,16.86,8.2,33.41,6.42,8.59-.93,13.64-5.25,17.07-2.3,2.51,2.15,2.61,6.87,1.33,10.17-3.6,9.25-19.66,11.26-29.17,10.65-10.7-.68-27.08-5.56-28.08-14.53-.42-3.72,1.79-8.3,5.45-10.41Z"/>
    <g class="cls-17">
      <g>
        <g>
          <ellipse class="cls-35" cx="346.65" cy="282.9" rx="8.21" ry="18.19" transform="translate(47.06 615.24) rotate(-87.18)"/>
          <path class="cls-8" d="M315.39,263.61s33.68,9.24,59.08,7.55l1.24-9.7-59.08-7.55-1.24,9.7Z"/>
        </g>
        <g class="cls-32">
          <path class="cls-6" d="M359.32,277.38c1.05,1.11,1.63,2.32,1.57,3.57-.22,4.53-8.54,7.8-18.57,7.31-4.8-.24-9.1-1.29-12.28-2.83,2.77,2.93,8.92,5.17,16.19,5.52,10.03.49,18.34-2.78,18.57-7.31.12-2.36-2.01-4.6-5.48-6.27Z"/>
        </g>
        <path class="cls-8" d="M374.84,284.42s-34.58-4.89-59.56,0v9.78s59.56,0,59.56,0v-9.78Z"/>
      </g>
    </g>
    <g>
      <path class="cls-33" d="M323.36,313.5c-.59.02-1.04.18-1.22.43-1.46,2-8.2,13.01-14.62,15.91s59.44,1.8,74.38,1.51c1.18-.02,1.82-.61,1.09-1.02-3.4-1.91-10.43-8.66-11.46-16.56-.03-.25-.35-.49-.89-.56-7.89-1.08-41.25.07-47.28.29Z"/>
      <g class="cls-18">
        <path class="cls-5" d="M322.14,313.93s31.54,14.43,51.96,5.07c20.42-9.36,0,0,0,0,0,0-1.2-5.91-2.66-5.42-20.87,7.02-43.39,1.77-43.39,1.77"/>
      </g>
    </g>
    <ellipse class="cls-37" cx="346.02" cy="615.46" rx="97.4" ry="68.81"/>
    <g class="cls-32">
      <path class="cls-6" d="M409.73,165.5c-1.23-2.96-3.28-6.18-5.78-9.41.04.1.1.19.14.29,10.18,24.44,5.75,47.25,6.4,73.72.28,11.32-2.75,24.73-5.69,35.67-6.13,22.75-26.29,37.22-48.8,41.08-.21.04-.42.07-.63.1-19.04,3.08-40,.08-56.71-9.81-5.37-3.17-9.83-7.4-13.51-12.27,4.4,8.69,10.65,16.36,19.16,21.38,16.72,9.89,37.68,12.89,56.71,9.81.21-.03.42-.07.63-.1,22.51-3.86,42.67-18.32,48.8-41.08,2.94-10.94,5.97-24.35,5.69-35.67-.65-26.47,3.78-49.28-6.4-73.72Z"/>
    </g>
    <path class="cls-10" d="M348.7,125.55c-39.73-1.55-74.97,31.57-75.8,73.34-.03,1.7,1.79,2.84,3.27,2,50.04-28.47,124.93-5.17,139.89-.04,1.31.45,2.68-.53,2.66-1.91-.68-39.68-32.35-71.92-70.02-73.39ZM350.29,177.13c-3.01-.29-6.05-.36-9.08-.23-6.32.28-16.41-.65-11.84-10.12,3.59-7.45,11.31-8.69,17.47-8.33,6.33.38,12.03,4.51,13.87,10.57,1.41,4.64.25,9.14-10.42,8.1Z"/>
    <g class="cls-31">
      <path class="cls-6" d="M348.7,125.36c-5.35-.21-10.62.23-15.73,1.22,2.56-.19,5.14-.24,7.74-.14,37.38,1.46,68.83,33.22,69.98,72.48,2.22.69,4.04,1.3,5.37,1.75,1.31.45,2.68-.53,2.66-1.91-.68-39.68-32.35-71.92-70.02-73.39Z"/>
    </g>
    <ellipse class="cls-12" cx="305" cy="149.05" rx="15.41" ry="3.09" transform="translate(-29.62 206.27) rotate(-35.75)"/>
    <ellipse class="cls-12" cx="342.54" cy="209.96" rx="2.57" ry="1.03" transform="translate(-58.12 239.68) rotate(-35.75)"/>
    <ellipse class="cls-13" cx="326.01" cy="223.51" rx="1.58" ry="1.03" transform="translate(-30.56 394.08) rotate(-60)"/>
    <ellipse class="cls-13" cx="362.79" cy="223.75" rx="1.58" ry="1.03" transform="translate(-12.38 426.06) rotate(-60)"/>
    <ellipse class="cls-12" cx="330.8" cy="207.27" rx="2.57" ry="1.03" transform="translate(-58.77 232.31) rotate(-35.75)"/>
    <ellipse class="cls-12" cx="322.08" cy="201.92" rx="2.57" ry="1.03" transform="translate(-57.28 226.21) rotate(-35.75)"/>
    <ellipse class="cls-12" cx="343.79" cy="235.97" rx="2.96" ry="1.18" transform="translate(-73.09 245.31) rotate(-35.75)"/>
    <ellipse class="cls-12" cx="337.53" cy="278.52" rx="6.13" ry="1.52" transform="translate(-69.46 117.7) rotate(-17.97)"/>
    <ellipse class="cls-12" cx="335.65" cy="164.89" rx="4.56" ry="1.58" transform="translate(-33.09 227.16) rotate(-35.75)"/>
    <g class="cls-7">
      <path class="cls-6" d="M349.97,235.23c-.47-.81-1.2-1.51-2.04-2,.17.21.32.43.45.65,1.31,2.25.92,5.53-1.45,7.2-1.72,1.21-3.94,1.21-5.63.32.03.04.05.08.08.12,1.58,1.97,4.83,2.54,7.14.91,2.37-1.67,2.76-4.96,1.45-7.2Z"/>
    </g>
    <rect class="cls-33" x="370.95" y="907.55" width="54.39" height="37.14"/>
    <rect class="cls-33" x="249.97" y="914.09" width="54.39" height="57.49"/>
    <path class="cls-37" d="M315.38,919.8c-4.1-53.42-6.47-107.55-1.1-160.97-.46,4.51-.92,9.02-1.37,13.53,2.25-21.84,3.61-44.33,11.39-64.88,21.67-57.3,6.91-30,3.33-45.05-3.12-13.1-12.27-28.35-25.97-32.48-9.85-2.97-20.91-2.33-29.65,5.13-2.6,2.65,3.3-10.52.7-7.87-4.77,6.35-16.56,29.66-18.38,38.29-10.35,33.48-15.15,68.96-18.04,104.79-2.58,32.04-2.5,64.36-1.13,96.5.76,17.7,1.92,35.37,3.27,53.01h76.97Z"/>
    <path class="cls-11" d="M254.62,785.51c7.52,4.11,17.16,4.1,25.18,1.52.76-.25.44-1.45-.33-1.21-7.69,2.48-16.99,2.56-24.21-1.39-.71-.39-1.34.69-.63,1.08h0Z"/>
    <ellipse class="cls-4" cx="338.62" cy="995.8" rx="180.37" ry="28.57"/>
    <rect class="cls-33" x="370.95" y="914.09" width="54.39" height="57.49"/>
    <path class="cls-37" d="M435.33,929.99c-.14-44.58,9.15-256.87-7.41-283.53-1.74-2.8-10.13-12.12-13.85-17.05-1.64-2.18-3.42-4.18-5.36-5.89-2.01-1.77-4.2-2.64-6.3-4.09-4.59-3.19-9.53-4.65-14.83-4.38-9.95.59-20.28,4.91-27.21,14.91-6.91,9.95-14.73,22.64-11.27,35.99,26.46,102.22,9.2,245.62,9.26,264.05h76.97Z"/>
    <path class="cls-11" d="M397.19,789.99c7.17,1.27,14.43,2.97,21.64.97.77-.22.45-1.42-.33-1.21-6.98,1.94-14.03.26-20.97-.97-.79-.14-1.12,1.07-.33,1.21h0Z"/>
    <g>
      <path class="cls-24" d="M429.79,649.94c8.65-10.28,13.64-22.28,13.64-35.11,0-15.35-7.12-29.52-19.14-40.96,7.52,9.76,11.79,20.95,11.79,32.84,0,12.83-4.98,24.83-13.64,35.11,13.96,39.32,5.41,236.63,5.54,279.42l7.35,8.12c-.14-42.79,8.42-240.1-5.54-279.42Z"/>
      <path class="cls-24" d="M338.67,675.51c-4.47,0-8.86-.23-13.17-.64-1.82,5.61-4.57,13.29-8.57,23.86-7.77,20.55-9.14,43.04-11.39,64.88.46-4.51.92-9.02,1.37-13.53-5.37,53.42-7.11,114.01,8.45,169.09h0c-4.1-53.42-6.47-107.55-1.1-160.97-.46,4.51-.92,9.02-1.37,13.53,2.25-21.84,3.61-44.33,11.39-64.88,4-10.57,6.75-18.25,8.57-23.86,4.31.41,8.7.64,13.17.64.81.07,6.75-.19,7.25-.2-.51-2.79-1.03-5.56-1.59-8.31-2.39.12-10.57.38-13.01.38Z"/>
    </g>
    <g>
      <path class="cls-8" d="M515.13,464.58c10.33,28.67,18.4,58.37,27.46,86.91.74,2.32,12.48,39.64,12.74,39.57l-59.07,18.4-15.79-46.83c-7.65-22.69-17.66-44.52-29.87-65.12l-14.86-25.08c-9.68,51.32,12.1,141.04,12.1,141.04l-201.91-2.08c2.91-15.35,6.77-30.54,8.77-46.05,1.87-14.54-.2-28.51-2.09-42.95-2.28-17.44-3.89-36.6-8.93-53.55-1.5-5.02-4.98-9.17-9.68-11.5-19.93-9.89-46.44-8.15-67.96-7.19-86.19,3.87-83.77-148.3-83.77-148.3l53.26-13.9c5.83,22.46,10.44,32.64,16.28,55.1,1.75,6.76,4.73,25.79,6.48,32.54,21.51,1.12,69.22,15.23,98.78-17.43,27.6-30.5,50.4-30.5,50.4-30.5,11.04,1.88,22.31,2.88,33.49,3.32,9.41.38,18.89.32,28.25-.83,10.18-1.25,19.07-5,29.5-2.63,30.01,6.79,56.72,31.37,74.64,55.25,18.52,24.69,31.32,52.72,41.79,81.82Z"/>
      <g>
        <path class="cls-5" d="M140.16,378.71c15.47.8,44.39,8.27,70.51.51-20.56,1.63-40.66-3.01-52.63-3.63-1.75-6.76-4.73-25.79-6.48-32.54-5.83-22.46-10.44-32.64-16.28-55.1l-17.49,4.57c5.62,21.17,10.16,31.52,15.84,53.42,1.77,6.8,4.76,25.97,6.53,32.78Z"/>
        <path class="cls-5" d="M430.4,613.29l16.94.17s-14.2-63.77-14.54-114.54c-.04-6.53,1.13-16.63,1.86-22.29.38-2.9-.25-5.84.22-8.73,8.78-53.44-9.45-126.35-55.02-138.12-1-.26-1.66,1.04-.86,1.7,18.12,14.96,28.12,26.03,35.53,47.87,8.96,26.39,12.59,35.1,6.13,94.72-1.71,15.75.05,31.45.37,47.28.52,22.83,2.46,45.66,5.48,68.29,1.06,7.9,2.15,15.85,3.89,23.63Z"/>
        <path class="cls-5" d="M463.75,380.41c18.65,24.87,32.42,56.28,42.97,85.58,10.4,28.88,19.93,58.54,29.05,87.28.74,2.34,13.95,39.42,14.24,39.43l5.31-1.65c-.25.08-12-37.24-12.74-39.57-9.06-28.53-17.13-58.23-27.46-86.91-10.48-29.09-23.28-57.13-41.79-81.82-17.92-23.89-44.63-48.46-74.64-55.25-9.26-2.09,47.01,28.84,65.06,52.9Z"/>
      </g>
      <g>
        <path class="cls-20" d="M362.54,424.38c-5.86.12-11.73.25-17.59.37-3.43.07-4.74-1.04-4.81-4.23-.13-6.37-.19-12.75-.28-19.14-.06-4.36-.14-8.73-.18-13.1-.03-3.38,1.22-4.72,4.86-4.82,11.82-.31,23.65-.56,35.47-.75,3.61-.06,4.74,1.11,4.78,4.49.13,10.88.25,21.75.37,32.61.03,3.03-1.09,4.1-4.42,4.18-6.07.14-12.14.26-18.21.39Z"/>
        <path class="cls-21" d="M348.68,478.32c-12.82.27-25.64.55-38.47.82-2.45-.72-3.12-1.55-3.17-4.17-.14-7.41-.24-14.82-.36-22.24-.05-3.34-.11-6.67-.16-10.01-.05-3.39,1.14-4.55,4.9-4.64,7.52-.19,15.04-.33,22.56-.49,4.14-.09,8.28-.2,12.42-.26,3.78-.06,5.01,1.03,5.06,4.41.15,10.83.3,21.64.43,32.44.03,2.54-.59,3.32-3.22,4.14Z"/>
        <path class="cls-16" d="M304.82,397.91c5.94-.13,11.88-.26,17.83-.37,3.17-.06,4.52,1.12,4.57,4.08.15,8.78.23,17.56.43,26.32.03,1.38-.49,1.67-1.88,1.69-7.03.09-14.07.27-21.1.42-4.68.11-6.11,1.49-6.04,5.79q.05,3.42-3.6,3.49c-2.69.06-5.38.14-8.07.16-2.68.03-4.19-1.16-4.24-3.61-.24-11.28-.44-22.57-.58-33.88-.03-2.4,1.46-3.62,4.24-3.69,6.15-.16,12.3-.27,18.45-.4Z"/>
      </g>
    </g>
    <g>
      <path class="cls-33" d="M133.46,293.55s-2.66-1.7-1.69-18.88c.97-17.19,1.69-14.04,1.69-23.97,0,0,14-15.03,15.04-32.37.27-4.54-3.64-8.5-8.1-7.6-.29.06-.59.13-.89.23-2.93.9-5.21,3.23-6.39,6.06l-6.55,15.6c-.28.66-1.02.93-1.67.63-2.59-1.2-7.73-7.64-2.73-41.02.27-1.81-.68-3.59-2.36-4.32-1.59-.7-3.8-1.17-6.37-.44-2.48.71-4.32,2.82-4.82,5.35l-5.25,26.46s-4.96-33.05-9.08-37.16c-1.96-1.96-4.86-2.04-7.37-1.59-2.91.53-5.04,3.05-5.04,6.01h0c0,4.34.38,8.68,1.14,12.95l3.46,19.48s-8.96-24.21-16.46-24.69c-3.51-.23-5.7,1.3-7.03,2.98-1.48,1.87-1.71,4.43-.63,6.57,3.16,6.27,10.91,22.27,9.36,25.56,0,0-9.93-15.98-15.49-15.74-1.39.06-2.57.5-3.56,1.12-3.26,2.06-4.44,6.28-3.14,9.91.51,1.42,1.26,2.95,2.34,4.21,1.38,1.62,2.93,3.62,4.18,5.27,1.51,2.01,2.78,4.17,3.79,6.47l21.08,35.11,5.08,26.75s22.76,8.23,47.45-8.96Z"/>
      <g>
        <path class="cls-7" d="M100.91,221.52l2.47-2.24c-1.82-9.99-5.48-34-9.08-37.16-2.04-1.79-4.74-2.03-7.21-1.61,1.14.24,2.21.73,3.09,1.61,4.12,4.12,10.72,39.4,10.72,39.4Z"/>
        <path class="cls-7" d="M87.09,226.37l-.6-7.39c-7.43-18.81-13.2-24.48-16.46-24.69-1.11-.07-2.08.05-2.94.27,7.23,2.67,20,31.81,20,31.81Z"/>
        <path class="cls-7" d="M133.46,293.55s-2.66-1.7-1.69-18.88c.97-17.19,1.69-14.04,1.69-23.97,0,0,14-15.03,15.04-32.37.27-4.54-3.64-8.5-8.1-7.6-.27.05-.55.13-.83.21,2.92.98,5.02,4.02,4.81,7.39-1.04,17.34-15.04,32.37-15.04,32.37,0,9.93-.73,6.78-1.69,23.97-.97,17.19,2.53,21.03,2.53,21.03l3.28-2.14Z"/>
        <path class="cls-7" d="M118.06,192.23c-5,33.37,3.1,41.74,5.69,42.95.65.3,1.39.03,1.67-.63l.49-1.18c-5.95-.28-7.63-15.15-3.73-41.14.27-1.81-.68-3.59-2.36-4.32-1.47-.64-3.48-1.06-5.81-.54.61.14,1.19.32,1.69.54,1.68.73,2.63,2.51,2.36,4.32Z"/>
        <path class="cls-7" d="M73.07,237.19c.58-1.23-.14-4.21-1.42-7.8-7.66-11.79-12.6-15.86-15.42-15.74-.81.04-1.54.21-2.21.46,5.66,2.53,19.05,23.07,19.05,23.07Z"/>
      </g>
    </g>
    <g>
      <path class="cls-33" d="M500.2,592.29s4.2,7.03,6.78,24.06c2.58,17.02,1.23,14.09,3.26,23.8,0,0-10.61,17.58-8.07,34.77.67,4.5,5.31,7.57,9.49,5.77.27-.12.55-.25.82-.4,2.69-1.48,4.43-4.23,5.01-7.24l3.2-16.62c.14-.7.8-1.12,1.5-.96,2.78.65,9.13,5.89,11.1,39.58.11,1.83,1.4,3.37,3.19,3.74,1.7.35,3.96.37,6.32-.88,2.28-1.21,3.65-3.64,3.62-6.22l-.3-26.97s11.65,31.32,16.52,34.5c2.32,1.52,5.18,1,7.54.04,2.74-1.11,4.3-4.02,3.69-6.92h0c-.89-4.25-2.16-8.41-3.78-12.44l-7.39-18.35s13.74,21.85,21.18,20.79c3.48-.5,5.31-2.44,6.27-4.36,1.06-2.14.76-4.69-.73-6.56-4.38-5.48-15.25-19.55-14.41-23.09,0,0,13,13.6,18.4,12.22,1.35-.35,2.41-1.02,3.25-1.83,2.77-2.69,3.05-7.06,1.03-10.35-.79-1.29-1.84-2.63-3.15-3.64-1.69-1.3-3.61-2.94-5.17-4.3-1.89-1.65-3.58-3.51-5.04-5.55l-27.84-30.03-11.71-31.06s-23.96-3.38-44.6,18.51Z"/>
      <g>
        <path class="cls-7" d="M517.59,656.43l-3.2,16.62c-.58,3.01-2.33,5.76-5.01,7.24-.28.15-.55.29-.82.4-.32.14-.65.2-.98.28,1.31.33,2.72.31,4.09-.28.27-.12.55-.25.82-.4,2.69-1.48,4.43-4.23,5.01-7.24l3.2-16.62s.04-.09.05-.13c-.63-.48-1.19-.72-1.66-.83-.7-.16-1.37.26-1.5.96Z"/>
        <path class="cls-7" d="M567,679.89c1.62,4.03,2.89,8.19,3.78,12.44.61,2.9-.95,5.81-3.69,6.92-.8.33-1.66.59-2.54.75,1.87.42,3.9-.04,5.64-.75,2.74-1.11,4.3-4.02,3.69-6.92-.89-4.25-2.16-8.41-3.78-12.44l-7.39-18.35c-4.03-5.04-3.1,0-3.1,0l7.39,18.35Z"/>
        <path class="cls-7" d="M571.93,648.32c-.84,3.54,10.03,17.61,14.41,23.09,1.49,1.86,1.79,4.42.73,6.56-.86,1.72-2.41,3.44-5.22,4.15.72.22,1.41.31,2.05.22,3.48-.5,5.31-2.44,6.27-4.36,1.06-2.14.76-4.69-.73-6.56-3.32-4.16-15.14-19.18-14.41-23.09-2.51-2.27-3.1,0-3.1,0Z"/>
        <path class="cls-7" d="M543.33,691.69c.03,2.58-1.34,5.02-3.62,6.22-.98.52-1.93.78-2.85.93,1.66.28,3.74.23,5.95-.93,2.28-1.21,3.65-3.64,3.62-6.22l-.3-26.97c-1.57-2.84-3.1,0-3.1,0l.3,26.97Z"/>
        <path class="cls-7" d="M597.7,648.34c-.79-1.28-1.83-2.61-3.14-3.62-1.69-1.3-3.61-2.94-5.17-4.3-1.89-1.65-3.58-3.51-5.04-5.55l-27.83-30.02s-.01-.02-.02-.03l-11.69-31s-.02-.05-.05-.05c-.26-.03-2.17-.26-5.2-.15,1.36.05,2.12.16,2.12.16l11.21,29.72c.33.88.84,1.7,1.48,2.39l26.87,28.98c1.46,2.04,3.15,3.9,5.04,5.55,1.56,1.36,3.48,3,5.17,4.3,1.32,1.01,2.36,2.36,3.15,3.64,2.02,3.29,1.74,7.66-1.03,10.35-.72.7-1.64,1.24-2.73,1.62.96.29,1.85.4,2.58.21,1.32-.34,2.36-.98,3.19-1.77,2.83-2.69,3.13-7.11,1.08-10.43Z"/>
      </g>
    </g>
    <path class="cls-8" d="M371.9,329.69c10.18-1.25,19.07-5,29.5-2.63,30.01,6.79,56.72,31.37,74.64,55.25,18.52,24.69,31.32,52.72,41.79,81.82,10.33,28.67,18.4,58.37,27.46,86.91.74,2.32,12.48,39.64,12.74,39.57l-59.07,18.4-15.79-46.83c-7.65-22.69-17.66-44.52-29.87-65.12l-14.86-25.08-66.53-142.28Z"/>
    <ellipse class="cls-4" cx="818.65" cy="1002.39" rx="180.37" ry="28.57"/>
    <path class="cls-7" d="M896.49,238.61c-2.17-6.44-4.9-12.59-8.17-18.24-6.05-8.91-13.97-14.82-21.95-18.75,15.44,19.28,21.12,49.8,19.65,75.79,1.05,2.23,1.58,4.8,1.33,7.78-1.53,18.79.72,25.53-4.9,43.5,0,0,.92,5.62,4.96,0,3.97-5.53,21.44-45.93,9.09-90.08Z"/>
    <path class="cls-37" d="M854.7,658.31c-12.4,1.23-24.83,2.19-37.27,2.88-3.2.18-3.22,5.18,0,5,12.44-.7,24.87-1.66,37.27-2.88,1.34-.13,2.5-1.05,2.5-2.5,0-1.25-1.15-2.63-2.5-2.5h0Z"/>
    <g>
      <path class="cls-26" d="M971.64,649.76s6.83,0,8.39,11.64c1.55,11.63.41,11.54-2.35,21.07,0,0-6.37,12.02-4.85,23.76.4,3.08,3.19,5.18,5.7,3.94.16-.08.33-.17.49-.28,1.61-1.01,2.66-2.89,3.01-4.95l1.92-11.35c.08-.48.48-.77.9-.66,1.67.44,5.48,4.03,6.66,27.05.06,1.25.84,2.3,1.92,2.56,1.02.24,2.38.25,3.8-.6,1.37-.82,2.19-2.49,2.17-4.25l-.18-18.43s6.99,21.4,9.92,23.58c1.39,1.04,3.11.68,4.53.03,1.65-.76,2.58-2.75,2.22-4.73h0c-.54-2.9-1.29-5.75-2.27-8.5l-4.43-12.54s8.25,14.93,12.72,14.2c2.09-.34,3.19-1.67,3.76-2.98.64-1.46.46-3.21-.44-4.48-2.63-3.75-9.16-13.36-8.65-15.78,0,0,7.8,9.29,11.05,8.35.81-.24,1.45-.69,1.95-1.25,1.66-1.84,1.83-4.82.62-7.07-.48-.88-1.1-1.8-1.89-2.49-1.01-.89-2.17-2.01-3.1-2.94-1.13-1.13-2.15-2.4-3.03-3.79l-16.72-20.52-7.03-21.22s-14.39-2.31-26.78,12.65Z"/>
      <g>
        <path class="cls-7" d="M982.08,693.59l-1.92,11.35c-.35,2.06-1.4,3.94-3.01,4.95-.17.1-.33.2-.49.28-.19.1-.39.14-.59.19.79.23,1.63.21,2.45-.19.16-.08.33-.17.49-.28,1.61-1.01,2.66-2.89,3.01-4.95l1.92-11.35s.02-.06.03-.09c-.38-.33-.72-.49-1-.57-.42-.11-.82.17-.9.66Z"/>
        <path class="cls-7" d="M1011.75,709.62c.97,2.75,1.73,5.6,2.27,8.5.36,1.98-.57,3.97-2.22,4.73-.48.22-1,.4-1.53.51,1.13.29,2.34-.03,3.39-.51,1.65-.76,2.58-2.75,2.22-4.73-.54-2.9-1.29-5.75-2.27-8.5l-4.43-12.54c-2.42-3.44-1.86,0-1.86,0l4.43,12.54Z"/>
        <path class="cls-7" d="M1014.71,688.05c-.5,2.42,6.02,12.03,8.65,15.78.89,1.27,1.08,3.02.44,4.48-.51,1.17-1.45,2.35-3.13,2.83.43.15.85.21,1.23.15,2.09-.34,3.19-1.67,3.76-2.98.64-1.46.46-3.21-.44-4.48-2-2.84-9.09-13.11-8.65-15.78-1.51-1.55-1.86,0-1.86,0Z"/>
        <path class="cls-7" d="M997.54,717.68c.02,1.76-.8,3.43-2.17,4.25-.59.35-1.16.53-1.71.64.99.19,2.25.16,3.57-.64,1.37-.82,2.19-2.49,2.17-4.25l-.18-18.43c-.94-1.94-1.86,0-1.86,0l.18,18.43Z"/>
        <path class="cls-7" d="M1030.19,688.06c-.47-.88-1.1-1.79-1.88-2.47-1.01-.89-2.17-2.01-3.1-2.94-1.13-1.13-2.15-2.4-3.03-3.79l-16.71-20.51s0-.01,0-.02l-7.02-21.18s-.01-.03-.03-.03c-.16-.02-1.3-.18-3.12-.11.81.04,1.27.11,1.27.11l6.73,20.31c.2.6.5,1.16.89,1.63l16.13,19.81c.88,1.39,1.89,2.66,3.03,3.79.93.93,2.09,2.05,3.1,2.94.79.69,1.42,1.61,1.89,2.49,1.21,2.25,1.04,5.23-.62,7.07-.43.48-.99.85-1.64,1.1.58.2,1.11.27,1.55.15.79-.23,1.42-.67,1.91-1.21,1.7-1.84,1.88-4.86.65-7.13Z"/>
      </g>
    </g>
    <g>
      <path class="cls-26" d="M676.66,648s-1.74.9-3.18,12.73c-1.43,11.84-.65,9.76-1.8,16.54,0,0,6.39,11.65,4.98,23.59-.37,3.13-3.1,5.45-5.59,4.39-.16-.07-.32-.15-.49-.24-1.6-.9-2.65-2.72-3.01-4.77l-1.99-11.3c-.08-.48-.48-.74-.89-.6-1.64.57-5.38,4.46-6.35,27.75-.05,1.26-.81,2.38-1.87,2.72s-2.34.43-3.75-.33c-1.36-.73-2.18-2.35-2.18-4.13l.02-18.59s-6.72,22.08-9.59,24.49c-1.37,1.14-3.06.91-4.47.36-1.63-.65-2.57-2.58-2.23-4.6h0c.5-2.97,1.23-5.89,2.17-8.74l4.27-12.96s-8.01,15.65-12.43,15.24c-2.07-.19-3.16-1.45-3.74-2.73-.64-1.42-.48-3.2.39-4.55,2.56-3.97,8.92-14.13,8.4-16.53,0,0-7.62,9.94-10.83,9.22-.8-.18-1.44-.59-1.94-1.12-1.65-1.73-1.85-4.73-.67-7.08.46-.92,1.07-1.89,1.85-2.65.99-.97,2.12-2.18,3.04-3.19,1.11-1.22,2.1-2.57,2.95-4.04l16.32-21.9,6.06-17.77s14.17-3.38,26.52,10.8Z"/>
      <g>
        <path class="cls-7" d="M649.4,693.99l1.17,1.77c-2.22,6.65-7.13,22.69-9.59,24.49-1.39,1.02-2.99.92-4.37.39.69-.05,1.37-.28,1.98-.79,2.87-2.41,10.8-25.86,10.8-25.86Z"/>
        <path class="cls-7" d="M641.93,689.31l-1.21,4.99c-6.5,12.12-10.51,15.42-12.43,15.24-.65-.06-1.2-.24-1.67-.48,4.51-1.11,15.31-19.76,15.31-19.76Z"/>
        <path class="cls-7" d="M676.66,648s-1.74.9-3.18,12.73c-1.43,11.84-.65,9.76-1.8,16.54,0,0,6.39,11.65,4.98,23.59-.37,3.13-3.1,5.45-5.59,4.39-.15-.06-.3-.14-.46-.23,1.81-.38,3.38-2.25,3.65-4.57,1.41-11.95-4.98-23.59-4.98-23.59,1.15-6.78.36-4.7,1.8-16.54,1.43-11.84,3.91-14.11,3.91-14.11l1.66,1.79Z"/>
        <path class="cls-7" d="M655.96,715.68c.97-23.29,6.65-28.21,8.29-28.77.41-.14.81.12.89.6l.15.85c-3.49-.4-6.19,9.6-6.94,27.73-.05,1.26-.81,2.38-1.87,2.72-.93.29-2.15.38-3.44-.2.37-.04.73-.1,1.04-.2,1.06-.34,1.82-1.46,1.87-2.72Z"/>
        <path class="cls-7" d="M635.04,680.54c.19.89-.57,2.86-1.73,5.19-5.82,7.3-9.16,9.59-10.78,9.23-.47-.1-.87-.29-1.23-.53,3.58-1.17,13.74-13.88,13.74-13.88Z"/>
      </g>
    </g>
    <g>
      <path class="cls-2" d="M781.13,400.81c9.02-.45,18.87,3.62,27.88,4.37,17.37,1.45,34.95-.42,51.81-4.73,29.45-7.53-14.26,60.08-17.6,114.03-2.14,34.52,38.94,63.46,38.94,63.46,1.55,18.07,5.88,38.8,19.85,51.27.62.55,1.29,1.18.98,2.21-.26.88-1.07,1.5-1.98,1.68-23.38,4.7-47.05-.12-70.53-.12-26.83,0-53.71-.47-80.53,0-2.63.05-7.94,1.11-7.58-3.03.1-1.15.63-2.22,1.37-3.1,16.66-19.94,27.05-46.37,24.28-71.81.79-12.25,33.07-22.52,33.88-35.37.7-10.97-33.06-24.06-34.63-34.5-3.57-23.76-11.35-45.77-18.1-68.83-.23-.78-.45-1.64-.11-2.38.34-.75,1.16-1.13,1.91-1.46,9.2-4.03,20.01-11.17,30.15-11.67Z"/>
      <path class="cls-40" d="M863.49,594.62c-7.23.16-15.17-.14-20.15-4.89-6.79-6.48-5.91-15.92-6.33-24.51-.55-11.22-1.1-22.43-1.66-33.65-1.09-22.05-2.17-44.09-3.26-66.14-.82-16.64-3.36-38.37,5.04-53.54,2.52-4.55,5.93-8.04,10.95-9.68,3.56-1.16,7.33-1.66,10.8-3.08,2.66-1.09,5.1-2.72,7.12-4.77,1-1.01,1.93-2.14,3.16-2.87,7.01-4.14,25.83,9.71,31.97,13.02,9.84,5.31,16.92,18.42,23.73,27.39,15.65,20.63,25.05,41.38,37.07,71.89,7.64,19.4,11.88,41.47,19.51,60.91,5.26,13.4,10.25,26.91,15.04,40.48,2.95,8.36,22.01,41.6,12.35,48.02-.93.62-2.06.87-3.16,1.1-8.83,1.88-17.57,3.55-26.11,6.44-6.01,2.03-4.32.84-10.89-.8-8.8-2.57-5.63-6.19-7.86-13.48-4.52-14.76-7.21-30.36-12.36-44.93-4.28-12.12-11.42-26.01-15.73-38.19-3.38-9.58-9.96-26.41-13.48-35.95-5.43-14.68-23.66-39.32-29.17-53.97,1.1,3.15-.65,19.56-10.48,37.16-3.68,25.88,8.07,51.63,11.74,77.32.14.96.27,1.97-.08,2.88-.66,1.7-2.7,2.34-4.5,2.66-5.44.98-11,1-16.53,1.02-2.08,0-4.36.11-6.72.16Z"/>
      <path class="cls-40" d="M786.24,595.39c7.23.16,15.17-.14,20.15-4.89,6.79-6.48,5.91-15.92,6.33-24.51.55-11.22,1.1-22.43,1.66-33.65,1.09-22.05,2.17-44.09,3.26-66.14.82-16.64,3.36-38.37-5.04-53.54-2.52-4.55-5.93-8.04-10.95-9.68-3.56-1.16-7.33-1.66-10.8-3.08-2.66-1.09-5.1-2.72-7.12-4.77-1-1.01-1.93-2.14-3.16-2.87-7.01-4.14-25.83,9.71-31.97,13.02-9.84,5.31-16.92,18.42-23.73,27.39-15.65,20.63-25.05,41.38-37.07,71.89-7.64,19.4-11.88,41.47-19.51,60.91-5.26,13.4-10.25,26.91-15.04,40.48-2.76,7.83-13.74,46.12-13.83,46.51-.16.7,38.28,13.09,38.28,13.09,0,0,5.63-14.25,7.86-20.22,5.42-14.45,10.57-28.47,15.72-43.04,4.28-12.12,11.42-26.01,15.73-38.19,3.38-9.58,9.96-26.41,13.48-35.95,5.43-14.68,27.06-43.77,32.58-58.41-1.1,3.15-3.89,16.91,9.12,39.54,3.68,25.88-10.12,53.71-13.79,79.39-.14.96-.27,1.97.08,2.88.66,1.7,2.7,2.34,4.5,2.66,5.44.98,11,1,16.53,1.02,2.08,0,4.36.11,6.72.16Z"/>
      <path class="cls-7" d="M844.31,509.56c-3.96-1.57-7.46-3.47-10.4-5.58-.88-.63-1.71-1.27-2.49-1.93-1.94-1.65-3.55-3.38-4.81-5.16-.55-.78-1.04-1.57-1.46-2.36.11,1.15.37,2.3.79,3.45,1.06,2.85,3.05,5.66,5.84,8.2,2.99,2.72,6.9,5.14,11.56,6.99,13.65,5.4,29.08,4.04,36.45-2.8-8.51,4.36-22.57,4.31-35.49-.81Z"/>
      <path class="cls-7" d="M806.87,508.97c3.83-1.51,7.19-3.36,10.02-5.42.84-.61,1.64-1.24,2.39-1.89,1.86-1.61,3.39-3.32,4.59-5.06.53-.77.9-1.29,1.29-2.07-.09,1.14-.23,2.03-.63,3.16-.98,2.82-2.86,5.58-5.54,8.07-2.86,2.67-6.62,5.02-11.13,6.8-13.19,5.2-28.22,3.67-35.51-3.2,8.36,4.43,22.03,4.54,34.51-.39Z"/>
      <g>
        <path class="cls-7" d="M744.54,632.93c1.68.4,3.95.07,5.41.05,7.73-.13,15.46-.19,23.19-.2-9.54-.02-19.07.01-28.6.15Z"/>
        <path class="cls-7" d="M762.8,453.33c-5.52,14.65-35.78,60.15-41.2,74.83-3.52,9.53-10.1,26.36-13.48,35.95-4.3,12.19-11.44,26.07-15.73,38.19-5.15,14.57-10.3,28.58-15.72,43.04-1.65,4.39-5.13,13.28-6.85,17.66,4.62,1.51,7.89,2.56,7.89,2.56,0,0,5.63-14.25,7.86-20.22,5.42-14.45,10.57-28.47,15.72-43.04,4.28-12.12,11.42-26.01,15.73-38.19,3.38-9.58,9.96-26.41,13.48-35.95,3.74-10.11,28.35-45.71,32.66-58.65,0-6.93-1.02-14.27-.36-16.18Z"/>
        <path class="cls-7" d="M871.23,508.52c-.38,1.39-.68,2.79-.83,4.22-2.77,25.15,8.45,50.19,12.01,75.17.14.96.27,1.97-.08,2.88-.66,1.7-2.7,2.34-4.5,2.66-.8.14-1.59.26-2.4.37,2.64,13.36,7.69,26.48,17.67,35.39.32.29,4.21,3.17,6.66,3.78,2.26.55,3.1-1.14,3.23-1.56.31-1.03-.36-1.66-.98-2.21-9.98-8.91-15.03-22.04-17.67-35.39.8-.1,1.6-.22,2.4-.37,1.8-.32,3.83-.96,4.5-2.66.35-.9.22-1.92.08-2.88-3.67-25.69-15.42-51.45-11.74-77.32,0-.01.01-.02.02-.04.07-.06.14-.11.21-.18-.05.03-.1.05-.15.07,4.49-8.07,11.61-23.68,10.56-36.73-3.11-5.44-5.78-10.52-7.38-14.76.96,2.75-9.09,40.28-11.6,49.56Z"/>
        <path class="cls-7" d="M773.14,632.78c16.15.03,32.3.2,48.43.2,17.22,0,34.54,2.59,51.78,2.11-14.29-.34-28.62-2.11-42.87-2.11-19.1,0-38.23-.23-57.34-.2Z"/>
      </g>
    </g>
    <g>
      <path class="cls-8" d="M737.4,986.36s36.48.62,36.48-15.04c0,0,25.63-4.12,12.82-21.47l-22.85-12.62-38.27,46.19,11.83,2.94Z"/>
      <polygon class="cls-8" points="800.69 966.92 800.97 951.5 775.94 936.64 772.08 947.07 800.69 966.92"/>
      <path class="cls-8" d="M769,921.43c5.12,1.29,10.03,4.72,11.6,9.76,1.2,3.84.33,8.02-1.05,11.79-1.38,3.77-3.29,7.37-4.25,11.27-9.73-4-19.79-7.21-30.05-9.58,2.43-4.75,4.85-9.51,7.28-14.26,1.02-2,1.82-3.9,2.22-6.12.25-1.42.08-2.46,1.47-3.26,2.94-1.68,9.72-.37,12.78.4Z"/>
      <path class="cls-9" d="M773.16,936.75c.74-4.29.11-9.2-3.14-12.09-2.18-1.94-5.17-2.66-8.05-3.1-8.42-1.3-17.12-.83-25.35,1.36-2.56.68-5.22,1.63-6.86,3.7-1.9,2.39-2.01,5.76-1.37,8.75.64,2.98,1.92,5.8,2.55,8.78,3.52-.37,16.65-1.16,18.28-.93,3.46.49,8.63,1.35,11.94,2.5,1.82.63,6.96,3.96,8.55,2.74.99-.76,1.43-4.32,1.82-5.54.65-2.03,1.28-4.07,1.64-6.18Z"/>
      <path class="cls-19" d="M737.71,952.51c5.34-3.27,11.71-3.33,17.73-2.22s11.27,3.58,16.18,7.16c3.68,2.68,7.53-3.3,3.84-5.99-5.92-4.31-12.49-7.29-19.42-8.57-7.11-1.31-14.97-1.05-21.26,2.8-1.57.96-2.41,2.97-1.57,4.92.74,1.73,2.93,2.87,4.51,1.9h0Z"/>
      <path class="cls-19" d="M733.34,960.7c5.34-3.27,11.71-3.33,17.73-2.22,5.75,1.06,11.27,3.58,16.18,7.16,3.68,2.68,7.53-3.3,3.84-5.99-5.92-4.31-12.49-7.29-19.42-8.57-7.11-1.31-14.97-1.05-21.26,2.8-1.57.96-2.41,2.97-1.57,4.92.74,1.73,2.93,2.87,4.51,1.9h0Z"/>
      <path class="cls-9" d="M767.02,976.07s-.06,0-.06-.02c.5-6.98-.09-12.65-4.71-18.25-4.31-5.23-10.6-11.02-16.89-13.69-4.37-1.85-9.21-2.23-13.96-2.41-10.33-.4-21.57.32-29.45,7.01-4.15,3.53-6.93,8.38-9.37,13.25-3.47,6.95-6.46,14.27-6.05,22.35.12,2.43.67,4.83,1.57,7.09.7,1.77,1.67,3.53,3.19,4.71,1.22.94,2.7,1.43,4.2,1.79,7.68,1.83,15.54,2.8,23.43,3.23,25.85,1.41,52.63,3.06,77.8-3.82.6-.16,1.21-.34,1.68-.74.87-.74,1.01-2.02,1.08-3.16.5-7.66,1.01-15.33,1.51-22.99.08-1.18.15-2.42-.31-3.51-.55-1.31-1.73-2.26-2.93-3.03-7.53-4.83-9.74-6.24-17.11-10.88,1.13,5.45-3.8,9.31-5.15,10.25-.21.15-.3.39-.26.65.7,4.54-2.28,8-7.03,11.82l-1.19.35Z"/>
      <path class="cls-34" d="M692.73,997.26c-1.22,3.31-.11,7.34,2.64,9.56,1.92,1.55,4.41,2.19,6.82,2.74,27.28,6.15,55.75,5.29,83.41,1.14,3.43-.51,6.9-1.1,10.01-2.62,3.11-1.52,5.86-4.14,6.74-7.49.42-1.62.28-3.59-1.04-4.62-.66-.52-1.61-.53-2.37-.22-3.28,1.37-6.56,2.72-10.08,3.24-31.67,4.66-64.92,4.52-96.13-1.72Z"/>
      <path class="cls-8" d="M741.58,928.25l18.33.49c.12,0,.22.1.22.23v8.33c0,.13-.11.23-.24.23l-18.33-.93c-.12,0-.21-.11-.21-.23v-7.9c0-.13.1-.23.23-.23Z"/>
      <ellipse class="cls-12" cx="708.29" cy="958.58" rx="11.33" ry="3.91" transform="translate(-426.58 594.39) rotate(-35.75)"/>
      <g class="cls-7">
        <path d="M801.34,995.95c-.63-.5-1.54-.52-2.28-.24.32-.69.41-1.52.46-2.3.5-7.66,1.01-15.33,1.51-22.99.08-1.18.15-2.42-.31-3.51l.28-15.41-20.35-12.08c.64-2.74.81-5.57-.02-8.23-1.57-5.04-6.48-8.47-11.6-9.76-1.37-.35-3.5-.8-5.69-1.04.85.09,12.23,2.89,14.36,10.16.52,1.78-.65,6.38-.62,6.55.09.53.76.66,1.15.89.7.41,15.2,9.05,16.59,9.85l.57.33s-2.18,36.22-2.68,43.88c-.05.78-.76,13.13-3.87,14.66-3.11,1.52-6.59,2.1-10.01,2.62-25.26,3.79-51.2,4.82-76.3.29,27.19,6.08,55.55,5.2,83.1,1.07,3.43-.51,6.9-1.1,10.01-2.62,3.11-1.52,5.86-4.14,6.74-7.49.42-1.62.28-3.59-1.04-4.62Z"/>
      </g>
    </g>
    <g>
      <ellipse class="cls-12" cx="902.67" cy="962.03" rx="11.33" ry="3.91" transform="translate(-391.97 708.61) rotate(-35.75)"/>
      <path class="cls-8" d="M910.53,988.55s-35.9.65-35.9-15.59c0,0-25.23-4.27-12.61-22.25l22.49-13.08,37.67,47.87-11.64,3.05Z"/>
      <polygon class="cls-8" points="848.16 969.76 847.87 954.34 872.9 939.48 876.76 949.91 848.16 969.76"/>
      <path class="cls-8" d="M879.84,924.26c-5.12,1.29-10.03,4.72-11.6,9.76-1.2,3.84-.33,8.02,1.05,11.79,1.38,3.77,3.29,7.37,4.25,11.27,9.73-4,19.79-7.21,30.05-9.58-2.43-4.75-4.85-9.51-7.28-14.26-1.02-2-1.82-3.9-2.22-6.12-.25-1.42-.08-2.46-1.47-3.26-2.94-1.68-9.72-.37-12.78.4Z"/>
      <path class="cls-9" d="M875.68,939.58c-.74-4.29-.11-9.2,3.14-12.09,2.18-1.94,5.17-2.66,8.05-3.1,8.42-1.3,17.12-.83,25.35,1.36,2.56.68,5.22,1.63,6.86,3.7,1.9,2.39,2.01,5.76,1.37,8.75-.64,2.98-1.92,5.8-2.55,8.78-3.52-.37-16.65-1.16-18.28-.93-3.46.49-8.63,1.35-11.94,2.5-1.82.63-6.96,3.96-8.55,2.74-.99-.76-1.43-4.32-1.82-5.54-.65-2.03-1.28-4.07-1.64-6.18Z"/>
      <path class="cls-19" d="M913.49,953.81c-5.34-3.27-11.71-3.33-17.73-2.22-5.75,1.06-11.27,3.58-16.18,7.16-3.68,2.68-7.53-3.3-3.84-5.99,5.92-4.31,12.49-7.29,19.42-8.57,7.11-1.31,14.97-1.05,21.26,2.8,1.57.96,2.41,2.97,1.57,4.92-.74,1.73-2.93,2.87-4.51,1.9h0Z"/>
      <path class="cls-19" d="M917.86,962c-5.34-3.27-11.71-3.33-17.73-2.22-5.75,1.06-11.27,3.58-16.18,7.16-3.68,2.68-7.53-3.3-3.84-5.99,5.92-4.31,12.49-7.29,19.42-8.57,7.11-1.31,14.97-1.05,21.26,2.8,1.57.96,2.41,2.97,1.57,4.92-.74,1.73-2.93,2.87-4.51,1.9h0Z"/>
      <path class="cls-9" d="M881.82,978.91s.06,0,.06-.02c-.5-6.98.09-12.65,4.71-18.25,4.31-5.23,10.6-11.02,16.89-13.69,4.37-1.85,9.21-2.23,13.96-2.41,10.33-.4,21.57.32,29.45,7.01,4.15,3.53,6.93,8.38,9.37,13.25,3.47,6.95,6.46,14.27,6.05,22.35-.12,2.43-.67,4.83-1.57,7.09-.7,1.77-1.67,3.53-3.19,4.71-1.22.94-2.7,1.43-4.2,1.79-7.68,1.83-15.54,2.8-23.43,3.23-25.85,1.41-52.63,3.06-77.8-3.82-.6-.16-1.21-.34-1.68-.74-.87-.74-1.01-2.02-1.08-3.16-.5-7.66-1.01-15.33-1.51-22.99-.08-1.18-.15-2.42.31-3.51.55-1.31,1.73-2.26,2.93-3.03,7.53-4.83,9.74-6.24,17.11-10.88-1.13,5.45,3.8,9.31,5.15,10.25.21.15.3.39.26.65-.7,4.54,2.28,8,7.03,11.82l1.19.35Z"/>
      <path class="cls-34" d="M956.11,1000.09c1.22,3.31.11,7.34-2.64,9.56-1.92,1.55-4.41,2.19-6.82,2.74-27.28,6.15-55.75,5.29-83.41,1.14-3.43-.51-6.9-1.1-10.01-2.62s-5.86-4.14-6.74-7.49c-.42-1.62-.28-3.59,1.04-4.62.66-.52,1.61-.53,2.37-.22,3.28,1.37,6.56,2.72,10.08,3.24,31.67,4.66,64.92,4.52,96.13-1.72Z"/>
      <path class="cls-8" d="M907.27,931.09l-18.33.49c-.12,0-.22.1-.22.23v8.33c0,.13.11.23.24.23l18.33-.93c.12,0,.21-.11.21-.23v-7.9c0-.13-.1-.23-.23-.23Z"/>
      <g class="cls-7">
        <path d="M914.99,933.78c-.46,2.14-1.25,8.65-1.89,10.75,2.27-.07,1.17.44,5.62,0,.51-1.68,1.79-5.22,1.9-6.37.61-3.16.54-6.37-1.52-8.7-1.17-1.47-2.85-2.37-4.64-3.01,1.05,2.21,1.04,4.9.52,7.34Z"/>
        <path d="M956.27,964.8c-2.43-4.87-5.21-9.72-9.37-13.25-1.07-.91-2.22-1.7-3.4-2.4,3.04,3.25,5.28,7.23,7.28,11.23,2.47,4.95,4.71,10.11,5.63,15.59.93,5.5.67,12.32-1.41,17.57-.7,1.77-4.26,9.47-7.01,11.69-1.92,1.55-4.41,2.19-6.82,2.74-27.28,6.15-55.75,5.29-83.41,1.14-3.32-.5-6.69-1.07-9.73-2.49,1.3,1.83,3.17,3.3,5.2,4.3,3.11,1.52,6.59,2.1,10.01,2.62,27.66,4.15,56.13,5.01,83.41-1.14,2.41-.54,4.9-1.18,6.82-2.74,2.75-2.22,3.86-6.25,2.64-9.56-.44.09-.88.16-1.32.25.99-.32,1.94-.75,2.76-1.38,1.52-1.17,2.48-2.94,3.19-4.71.9-2.26,1.44-4.66,1.57-7.09.41-8.08-2.58-15.4-6.05-22.35Z"/>
      </g>
      <ellipse class="cls-12" cx="902.31" cy="961.93" rx="11.33" ry="3.91" transform="translate(-391.98 708.37) rotate(-35.75)"/>
    </g>
    <g>
      <path class="cls-8" d="M240.27,973.76s39.79.68,39.79-16.41c0,0,27.96-4.5,13.98-23.42l-24.93-13.77-41.74,50.38,12.9,3.21Z"/>
      <polygon class="cls-8" points="309.3 952.56 309.6 935.75 282.3 919.54 278.09 930.91 309.3 952.56"/>
      <path class="cls-8" d="M274.73,902.94c5.59,1.41,10.94,5.15,12.65,10.65,1.31,4.18.36,8.74-1.15,12.86-1.51,4.11-3.58,8.04-4.63,12.29-10.62-4.37-21.59-7.87-32.77-10.45,2.65-5.19,5.29-10.37,7.94-15.56,1.12-2.19,1.98-4.26,2.42-6.67.28-1.54.09-2.68,1.61-3.55,3.2-1.83,10.6-.4,13.94.44Z"/>
      <path class="cls-9" d="M279.27,919.65c.8-4.68.12-10.03-3.42-13.18-2.38-2.12-5.64-2.9-8.78-3.38-9.19-1.42-18.67-.91-27.66,1.49-2.79.74-5.69,1.78-7.49,4.04-2.07,2.61-2.19,6.29-1.5,9.54.7,3.25,2.1,6.33,2.78,9.58,3.84-.4,18.16-1.26,19.94-1.01,3.78.54,9.41,1.48,13.02,2.72,1.98.69,7.59,4.32,9.33,2.98,1.08-.83,1.56-4.72,1.98-6.04.7-2.22,1.4-4.44,1.79-6.74Z"/>
      <path class="cls-19" d="M240.6,936.84c5.83-3.56,12.77-3.63,19.34-2.42s12.29,3.91,17.65,7.81c4.01,2.92,8.21-3.6,4.18-6.53-6.46-4.7-13.62-7.96-21.19-9.35-7.75-1.43-16.33-1.14-23.19,3.06-1.71,1.05-2.63,3.24-1.71,5.37.81,1.89,3.2,3.13,4.92,2.07h0Z"/>
      <path class="cls-19" d="M235.84,945.78c5.83-3.56,12.77-3.63,19.34-2.42,6.28,1.16,12.29,3.91,17.65,7.81,4.01,2.92,8.21-3.6,4.18-6.53-6.46-4.7-13.62-7.96-21.19-9.35s-16.33-1.14-23.19,3.06c-1.71,1.05-2.63,3.24-1.71,5.37.81,1.89,3.2,3.13,4.92,2.07h0Z"/>
      <path class="cls-9" d="M272.57,962.55s-.07.01-.06-.03c.55-7.61-.1-13.8-5.14-19.9-4.7-5.7-11.56-12.02-18.43-14.93-4.77-2.02-10.05-2.43-15.23-2.63-11.27-.44-23.53.35-32.12,7.65-4.53,3.85-7.56,9.14-10.22,14.45-3.79,7.58-7.04,15.57-6.6,24.38.13,2.65.73,5.27,1.71,7.74.77,1.93,1.82,3.85,3.48,5.13,1.33,1.03,2.94,1.56,4.58,1.96,8.38,2,16.95,3.05,25.55,3.52,28.2,1.53,57.4,3.34,84.86-4.17.65-.18,1.32-.37,1.83-.81.95-.81,1.1-2.2,1.18-3.45.55-8.36,1.1-16.72,1.65-25.07.08-1.29.16-2.64-.34-3.83-.6-1.43-1.89-2.47-3.19-3.31-8.21-5.27-10.62-6.8-18.67-11.86,1.23,5.95-4.15,10.15-5.62,11.18-.23.16-.32.43-.28.71.76,4.95-2.49,8.73-7.66,12.89l-1.29.38Z"/>
      <path class="cls-34" d="M191.54,985.65c-1.33,3.61-.11,8.01,2.88,10.43,2.1,1.69,4.81,2.39,7.44,2.98,29.76,6.71,60.81,5.76,90.98,1.24,3.74-.56,7.53-1.19,10.92-2.85,3.39-1.66,6.39-4.51,7.35-8.17.46-1.77.3-3.91-1.13-5.04-.72-.56-1.76-.58-2.59-.24-3.58,1.49-7.16,2.97-10.99,3.53-34.54,5.08-70.81,4.92-104.85-1.88Z"/>
      <path class="cls-8" d="M244.82,910.38l20,.54c.13,0,.24.11.24.25v9.09c0,.14-.12.25-.26.25l-20-1.01c-.13,0-.23-.11-.23-.25v-8.61c0-.14.11-.25.25-.25Z"/>
      <ellipse class="cls-12" cx="208.51" cy="943.47" rx="12.35" ry="4.27" transform="translate(-511.91 299.57) rotate(-35.75)"/>
      <g class="cls-7">
        <path d="M310,984.22c-.69-.54-1.68-.57-2.49-.27.35-.75.44-1.66.5-2.51.55-8.36,1.1-16.72,1.65-25.07.08-1.29.16-2.64-.34-3.83l.31-16.81-22.2-13.18c.7-2.99.89-6.08-.02-8.98-1.72-5.5-7.07-9.24-12.65-10.65-1.5-.38-3.81-.87-6.2-1.13.92.1,13.34,3.16,15.66,11.09.57,1.94-.71,6.96-.68,7.14.09.58.83.72,1.26.97.76.45,16.58,9.87,18.09,10.75.21.12.42.24.62.36,0,0-2.37,39.5-2.92,47.86-.06.85-.83,14.33-4.22,15.99-3.39,1.66-7.19,2.29-10.92,2.85-27.56,4.13-55.85,5.26-83.22.31,29.66,6.63,60.59,5.68,90.64,1.17,3.74-.56,7.53-1.19,10.92-2.85,3.39-1.66,6.39-4.51,7.35-8.17.46-1.76.3-3.91-1.13-5.04Z"/>
      </g>
    </g>
    <g>
      <ellipse class="cls-12" cx="423.55" cy="950.09" rx="12.35" ry="4.27" transform="translate(-475.26 426.45) rotate(-35.75)"/>
      <path class="cls-8" d="M432.12,979.01s-39.16.71-39.16-17.01c0,0-27.52-4.66-13.76-24.27l24.53-14.27,41.09,52.22-12.7,3.33Z"/>
      <polygon class="cls-8" points="364.08 958.52 363.78 941.7 391.08 925.5 395.29 936.87 364.08 958.52"/>
      <path class="cls-8" d="M398.65,908.9c-5.59,1.41-10.94,5.15-12.65,10.65-1.31,4.18-.36,8.74,1.15,12.86,1.51,4.11,3.58,8.04,4.63,12.29,10.62-4.37,21.59-7.87,32.77-10.45-2.65-5.19-5.29-10.37-7.94-15.56-1.12-2.19-1.98-4.26-2.42-6.67-.28-1.54-.09-2.68-1.61-3.55-3.2-1.83-10.6-.4-13.94.44Z"/>
      <path class="cls-9" d="M394.11,925.61c-.8-4.68-.12-10.03,3.42-13.18,2.38-2.12,5.64-2.9,8.78-3.38,9.19-1.42,18.67-.91,27.66,1.49,2.79.74,5.69,1.78,7.49,4.04,2.07,2.61,2.19,6.29,1.5,9.54-.7,3.25-2.1,6.33-2.78,9.58-3.84-.4-18.16-1.26-19.94-1.01-3.78.54-9.41,1.48-13.02,2.72-1.98.69-7.59,4.32-9.33,2.98-1.08-.83-1.56-4.72-1.98-6.04-.7-2.22-1.4-4.44-1.79-6.74Z"/>
      <path class="cls-19" d="M435.35,941.13c-5.83-3.56-12.77-3.63-19.34-2.42-6.28,1.16-12.29,3.91-17.65,7.81-4.01,2.92-8.21-3.6-4.18-6.53,6.46-4.7,13.62-7.96,21.19-9.35s16.33-1.14,23.19,3.06c1.71,1.05,2.63,3.24,1.71,5.37-.81,1.89-3.2,3.13-4.92,2.07h0Z"/>
      <path class="cls-19" d="M440.12,950.06c-5.83-3.56-12.77-3.63-19.34-2.42-6.28,1.16-12.29,3.91-17.65,7.81-4.01,2.92-8.21-3.6-4.18-6.53,6.46-4.7,13.62-7.96,21.19-9.35,7.75-1.43,16.33-1.14,23.19,3.06,1.71,1.05,2.63,3.24,1.71,5.37-.81,1.89-3.2,3.13-4.92,2.07h0Z"/>
      <path class="cls-9" d="M400.81,968.51s.07.01.06-.03c-.55-7.61.1-13.8,5.14-19.9,4.7-5.7,11.56-12.02,18.43-14.93,4.77-2.02,10.05-2.43,15.23-2.63,11.27-.44,23.53.35,32.12,7.65,4.53,3.85,7.56,9.14,10.22,14.45,3.79,7.58,7.04,15.57,6.6,24.38-.13,2.65-.73,5.27-1.71,7.74-.77,1.93-1.82,3.85-3.48,5.13-1.33,1.03-2.94,1.56-4.58,1.96-8.38,2-16.95,3.05-25.55,3.52-28.2,1.53-57.4,3.34-84.86-4.17-.65-.18-1.32-.37-1.83-.81-.95-.81-1.1-2.2-1.18-3.45-.55-8.36-1.1-16.72-1.65-25.07-.08-1.29-.16-2.64.34-3.83.6-1.43,1.89-2.47,3.19-3.31,8.21-5.27,10.62-6.8,18.67-11.86-1.23,5.95,4.15,10.15,5.62,11.18.23.16.32.43.28.71-.76,4.95,2.49,8.73,7.66,12.89l1.29.38Z"/>
      <path class="cls-34" d="M481.84,991.61c1.33,3.61.11,8.01-2.88,10.43-2.1,1.69-4.81,2.39-7.44,2.98-29.76,6.71-60.81,5.76-90.98,1.24-3.74-.56-7.53-1.19-10.92-2.85-3.39-1.66-6.39-4.51-7.35-8.17-.46-1.77-.3-3.91,1.13-5.04.72-.56,1.76-.58,2.59-.24,3.58,1.49,7.16,2.97,10.99,3.53,34.54,5.08,70.81,4.92,104.85-1.88Z"/>
      <path class="cls-8" d="M428.56,916.34l-20,.54c-.13,0-.24.11-.24.25v9.09c0,.14.12.25.26.25l20-1.01c.13,0,.23-.11.23-.25v-8.61c0-.14-.11-.25-.25-.25Z"/>
      <g class="cls-7">
        <path d="M436.98,919.28c-.5,2.34-1.36,9.44-2.06,11.72,2.48-.07,1.28.47,6.13,0,.56-1.84,1.95-5.69,2.08-6.95.66-3.45.59-6.95-1.65-9.49-1.27-1.6-3.11-2.58-5.06-3.29,1.14,2.41,1.14,5.34.57,8Z"/>
        <path d="M482.01,953.12c-2.66-5.31-5.69-10.61-10.22-14.45-1.17-.99-2.42-1.86-3.71-2.62,3.31,3.55,5.76,7.88,7.94,12.25,2.7,5.4,5.14,11.02,6.15,17.01,1.01,6,.73,13.44-1.54,19.16-.77,1.93-4.65,10.33-7.64,12.75-2.1,1.69-4.81,2.39-7.44,2.98-29.76,6.71-60.81,5.76-90.98,1.24-3.63-.54-7.3-1.17-10.62-2.72,1.42,2,3.46,3.6,5.68,4.69,3.39,1.66,7.19,2.29,10.92,2.85,30.17,4.52,61.22,5.47,90.98-1.24,2.63-.59,5.34-1.29,7.44-2.98,2.99-2.42,4.21-6.82,2.88-10.43-.48.1-.96.18-1.44.27,1.08-.35,2.11-.81,3.01-1.51,1.66-1.28,2.71-3.2,3.48-5.13.98-2.47,1.58-5.09,1.71-7.74.45-8.81-2.81-16.8-6.6-24.38Z"/>
      </g>
      <ellipse class="cls-12" cx="423.15" cy="949.98" rx="12.35" ry="4.27" transform="translate(-475.27 426.19) rotate(-35.75)"/>
    </g>
  </g>
</svg>